<svg width="285" height="268" fill="none" xmlns="http://www.w3.org/2000/svg"><path d="M70.64 262h-3.222l-4.29-7.008L58.806 262h-3l5.683-8.883-5.32-8.25h3.117l3.961 6.481 3.961-6.481h3.024l-5.356 8.297L70.641 262Zm7.243-5.332v-2.227H99.96v2.227H77.883ZM122.039 262h-3.223l-4.289-7.008-4.324 7.008h-3l5.684-8.883-5.321-8.25h3.118l3.961 6.481 3.96-6.481h3.024l-5.356 8.297 5.766 8.836Zm.047-12.961h3l2.637 7.348c.398 1.047.664 2.031.797 2.953h.093c.071-.43.199-.949.387-1.559.188-.617 1.18-3.531 2.977-8.742h2.976l-5.543 14.684c-1.008 2.695-2.687 4.043-5.039 4.043a7.92 7.92 0 0 1-1.781-.2v-2.179c.414.093.887.14 1.418.14 1.328 0 2.262-.769 2.801-2.308l.48-1.219-5.203-12.961Zm27.269 17.543h-2.566V262h-8.883v4.582h-2.543v-6.715h1.055c.922-1.32 1.652-2.914 2.191-4.781.547-1.875.871-3.891.973-6.047h7.875v10.828h1.898v6.715Zm-4.605-6.715v-8.719h-2.789a23.74 23.74 0 0 1-.938 4.758c-.468 1.563-1.043 2.883-1.722 3.961h5.449Zm18.504-4.371c0 2.117-.543 3.77-1.629 4.957-1.086 1.188-2.598 1.781-4.535 1.781-1.211 0-2.281-.273-3.211-.82-.93-.547-1.645-1.332-2.145-2.355-.5-1.024-.75-2.211-.75-3.563 0-2.101.539-3.742 1.618-4.922 1.078-1.179 2.597-1.769 4.558-1.769 1.875 0 3.36.605 4.453 1.816 1.094 1.203 1.641 2.828 1.641 4.875Zm-9.434 0c0 2.992 1.106 4.488 3.317 4.488 2.187 0 3.281-1.496 3.281-4.488 0-2.961-1.102-4.441-3.305-4.441-1.156 0-1.996.383-2.519 1.148-.516.766-.774 1.863-.774 3.293Zm18.996-.164v-6.293h2.567v6.293l4.992-6.293h2.906l-5.097 6.27 5.554 6.691h-3.035l-5.32-6.574V262h-2.567v-6.574L167.508 262h-3.024l5.543-6.691-5.086-6.27h2.907l4.968 6.293Zm15.68-6.293v5.203h6.106v-5.203h2.753V262h-2.753v-5.59h-6.106V262h-2.754v-12.961h2.754Zm15.445 0v6.645c0 .773-.062 1.91-.187 3.41l6.504-10.055h3.363V262h-2.648v-6.527c0-.36.019-.942.058-1.746.047-.805.086-1.391.117-1.758L204.668 262h-3.363v-12.961h2.636Zm21.645 0h3.023l-5.355 6.246 5.812 6.715h-3.164l-5.601-6.574V262h-2.754v-12.961h2.754v6.293l5.285-6.293Z" fill="#666"/><path d="M64.736 46.804c6.072 0 11.013-4.94 11.013-11.013 0-6.072-4.941-11.013-11.013-11.013-6.073 0-11.014 4.94-11.014 11.013 0 6.072 4.941 11.013 11.014 11.013Zm0-15.733a4.725 4.725 0 0 1 4.72 4.72 4.725 4.725 0 0 1-4.72 4.72 4.725 4.725 0 0 1-4.72-4.72 4.725 4.725 0 0 1 4.72-4.72ZM207.909 89.284c0 6.073 4.941 11.014 11.013 11.014s11.013-4.941 11.013-11.014c0-6.072-4.941-11.013-11.013-11.013s-11.013 4.941-11.013 11.013Zm11.013-4.72a4.725 4.725 0 0 1 4.72 4.72 4.725 4.725 0 0 1-4.72 4.72 4.725 4.725 0 0 1-4.72-4.72 4.725 4.725 0 0 1 4.72-4.72ZM231.509 55.087a3.563 3.563 0 1 0-.001-7.125 3.563 3.563 0 0 0 .001 7.125ZM80.469 67.674a3.563 3.563 0 1 0 0-7.126 3.563 3.563 0 0 0 0 7.126ZM196.757 40.65c.614.614 1.42.921 2.225.921.804 0 1.61-.307 2.224-.921l3.556-3.556 3.556 3.556c.614.614 1.42.921 2.225.921a3.146 3.146 0 0 0 2.224-5.371l-3.555-3.556 3.555-3.555a3.146 3.146 0 1 0-4.449-4.45l-3.556 3.556-3.556-3.556a3.146 3.146 0 1 0-4.449 4.45l3.556 3.555-3.556 3.556a3.146 3.146 0 0 0 0 4.45ZM52.01 106.729c.614.615 1.42.922 2.225.922.804 0 1.61-.307 2.224-.922l3.556-3.555 3.556 3.555c.614.615 1.42.922 2.225.922a3.145 3.145 0 0 0 2.225-5.371l-3.556-3.556 3.555-3.555a3.146 3.146 0 1 0-4.45-4.45l-3.555 3.556-3.556-3.556a3.146 3.146 0 1 0-4.449 4.45l3.556 3.555-3.556 3.556a3.145 3.145 0 0 0 0 4.449ZM159.135 108.164a3.147 3.147 0 1 0 0-6.294 3.147 3.147 0 0 0 0 6.294ZM127.669 108.164a3.147 3.147 0 1 0-.001-6.293 3.147 3.147 0 0 0 .001 6.293Z" fill="#999"/><path d="M230.249 155.994c-3.991-2.996-4.326-7.836-4.713-13.437-.606-8.734-1.359-19.599-18.81-21.782-8.893-1.103-17.709 1.746-24.838 8.036-5.925 5.233-10.109 12.371-12.059 20.09l-12.266-5.573v-2.539c0-.029-.016-.054-.017-.083 12.043-5.754 21.199-16.476 24.914-29.401 2.093.055 4.019-.508 5.921-1.693 2.92-1.822 4.896-4.785 5.283-7.931a11.063 11.063 0 0 0-2.673-8.678 11.043 11.043 0 0 0-5.344-3.328c-.006-.553-.028-2.563-.036-2.773.158-.377.273-14.025.273-14.025.728-.087 1.438-.219 2.108-.45 2.36-.815 4.161-2.487 5.347-4.966h.003c4.094-8.555-3.221-20.673-17.119-30.003.974-2.465 1.076-5.154.188-7.675a10.951 10.951 0 0 0-5.63-6.272 10.927 10.927 0 0 0-8.419-.458c-2.524.892-4.556 2.655-5.865 4.957-15.98-4.98-30.008-3.084-34.108 5.47-.922 1.927-1.121 3.941-.674 5.891-13.467 6.157-20.846 17.798-20.79 32.99l.04 5.197c.031 2.94.109 8.45.167 8.695-.001.046.032 2.647.032 3.415a10.939 10.939 0 0 0-5.018 2.98 10.943 10.943 0 0 0-3.079 8.048c.117 3.368 2.028 6.62 5.107 8.697 1.946 1.312 3.897 1.954 6.017 1.92 3.291 12.025 11.273 22.115 21.922 28.242-.001.026-.015.048-.015.075v3.697l-25.078 11.397c-11.527 5.239-18.976 16.947-18.976 29.823v25.882a3.145 3.145 0 0 0 3.147 3.147h113.28a3.145 3.145 0 0 0 3.147-3.147v-14.488c1.55.195 3.118.328 4.72.328 13.899 0 28.636-8.994 32.185-19.639 1.436-4.312 2.272-12.726-8.274-20.636ZM164.452 28.991a4.714 4.714 0 0 1 3.604.194c1.893.908 2.883 2.917 2.618 4.89a79.25 79.25 0 0 0-3.976-2.055 78.96 78.96 0 0 0-4.056-1.796c.509-.534 1.095-.982 1.81-1.233Zm-36.39 7.206c1.417-2.953 5.839-4.671 12.04-4.671 6.481 0 14.907 1.874 23.879 6.17 17.559 8.414 26.572 21.007 23.681 27.048-.578 1.208-1.227 1.561-1.727 1.736-3.663 1.254-12.35-3.045-21.569-7.593-2.265-1.118-4.64-2.292-7.123-3.481-2.437-1.168-4.852-2.29-7.194-3.377-10.163-4.724-20.666-9.61-22.156-13.76-.245-.687-.197-1.307.169-2.072Zm-3.149 8.623c4.414 4.507 12.653 8.346 22.481 12.915a624.251 624.251 0 0 1 7.132 3.35c2.458 1.176 4.812 2.338 7.055 3.444 7.142 3.528 13.073 6.449 18.008 7.738v11.898c-9.416 7.08-20.063 9.763-30.127 7.563-9.023-1.97-16.504-7.688-20.524-15.687a3.147 3.147 0 0 0-2.333-1.696 3.113 3.113 0 0 0-2.735.915c-4.059 4.18-9.987 6.69-16.578 7.102-.003-1.519-.022-3.171-.037-4.865l-.04-5.16c-.059-16.216 9.403-23.894 17.698-27.517Zm-15.267 62.269a3.155 3.155 0 0 0-1.512-2.096 3.186 3.186 0 0 0-2.575-.255c-1.216.415-2.341.471-3.865-.562-1.395-.94-2.293-2.36-2.342-3.703a4.696 4.696 0 0 1 1.321-3.454 4.685 4.685 0 0 1 3.396-1.441 3.25 3.25 0 0 0 2.292-.971c.874-.898 1.144-1.67 1.09-5.964 6.731-.377 12.976-2.573 17.87-6.29 5.147 7.869 13.263 13.443 22.798 15.523 2.753.603 5.534.901 8.321.901 7.827-.002 15.675-2.385 22.981-6.922.12 1.438.407 2.126 1.043 2.77.59.6 1.429.953 2.271.953 1.353 0 2.643.58 3.537 1.594.91 1.027 1.316 2.354 1.146 3.74-.159 1.278-1.044 2.532-2.366 3.359-1.328.827-2.452.953-3.875.452a3.12 3.12 0 0 0-2.578.214 3.158 3.158 0 0 0-1.546 2.081c-3.064 14.068-13.462 25.561-27.14 29.992l-1.389.455c-3.912 1.268-7.91 1.315-11.554.138-13.913-4.477-24.383-16.17-27.324-30.514Zm25.395 36.506a23.983 23.983 0 0 0 7.381 1.149c2.671 0 5.378-.43 8.045-1.294l.803-.262v1.163c0 5.205-4.235 9.44-9.44 9.44-5.206 0-9.44-4.235-9.44-9.44v-1.799c.884.346 1.739.75 2.651 1.043Zm60.281 63.689h-18.88v-15.733a3.145 3.145 0 0 0-3.147-3.147 3.145 3.145 0 0 0-3.146 3.147v15.733h-59.787v-15.733a3.145 3.145 0 0 0-3.147-3.147 3.145 3.145 0 0 0-3.146 3.147v15.733H88.335v-22.736c0-10.414 6.002-19.873 15.288-24.095l23.495-10.677c2.221 5.998 7.95 10.308 14.711 10.308s12.49-4.31 14.71-10.309l12.211 5.548c-.088 1.061-.175 2.122-.175 3.188 0 16.991 11.283 31.386 26.747 36.112v12.661Zm37.228-32.643c-2.676 8.026-15.171 15.337-26.215 15.337-17.35 0-31.466-14.117-31.466-31.467 0-9.461 4.182-18.8 11.185-24.98 4.954-4.373 10.875-6.696 16.935-6.696.983 0 1.97.061 2.956.184 12.313 1.54 12.732 7.593 13.312 15.97.431 6.242.919 13.315 7.219 18.039 5.632 4.225 7.676 8.807 6.074 13.613Z" fill="#999"/><path d="M218.922 161.787c-5.135 0-9.311 4.176-9.311 9.311 0 5.131 4.176 9.307 9.311 9.307 5.134 0 9.311-4.176 9.311-9.307 0-5.135-4.176-9.311-9.311-9.311Zm0 12.325a3.02 3.02 0 0 1-3.018-3.014 3.024 3.024 0 0 1 3.018-3.018 3.023 3.023 0 0 1 3.017 3.018 3.02 3.02 0 0 1-3.017 3.014ZM200.042 131.396c-4.542 0-8.236 3.693-8.236 8.235s3.694 8.236 8.236 8.236c4.542 0 8.235-3.694 8.235-8.236 0-4.542-3.693-8.235-8.235-8.235Zm0 10.177a1.947 1.947 0 0 1-1.943-1.942c0-1.07.873-1.942 1.943-1.942s1.942.872 1.942 1.942c0 1.07-.872 1.942-1.942 1.942ZM194.118 156.938c0-4.542-3.694-8.236-8.236-8.236-4.542 0-8.236 3.693-8.236 8.236 0 4.542 3.694 8.235 8.236 8.235 4.542 0 8.236-3.693 8.236-8.235Zm-8.236 1.942a1.947 1.947 0 0 1-1.942-1.942c0-1.07.872-1.943 1.942-1.943 1.07 0 1.942.873 1.942 1.943a1.946 1.946 0 0 1-1.942 1.942ZM196.895 169.155c-4.541 0-8.235 3.694-8.235 8.236 0 4.542 3.693 8.235 8.235 8.235s8.236-3.693 8.236-8.235-3.694-8.236-8.236-8.236Zm0 10.178a1.946 1.946 0 0 1-1.942-1.942c0-1.07.872-1.942 1.942-1.942 1.07 0 1.943.872 1.943 1.942 0 1.07-.873 1.942-1.943 1.942ZM73.303 136.131a83.175 83.175 0 0 1-1.754-1.77l-.002-.002v-.001c-2.413-2.523-4.02-4.822-4.02-7.83 0-3.998-2.074-5.095-3.313-5.392-4.907-1.242-10.653 8.389-13.64 14.212-1.795 3.499-3.937 8.398-3.937 11.861 0 6.106 3.368 11.39 8.307 14.25l-1.82 40.423c-.148 3.266.996 6.426 3.137 8.663 1.869 1.957 4.32 3.033 6.902 3.033 2.58 0 5.033-1.076 6.901-3.033 2.142-2.237 3.285-5.396 3.137-8.663l-1.82-40.423c4.94-2.861 8.308-8.145 8.308-14.25 0-4.754-3.394-8.115-6.386-11.078Zm-11.739-6.509c.584 2.634 1.865 4.825 3.35 6.711-1.113.827-2.21 1.263-3.282 1.306-1.444-.006-3.011-.673-4.29-1.598 1.524-2.707 3.021-4.891 4.222-6.419Zm5.35 72.543c.071 1.557-.44 3.03-1.398 4.031-.473.498-1.269 1.088-2.353 1.088-1.085 0-1.881-.59-2.354-1.088-.959-1.001-1.469-2.474-1.398-4.031l1.74-38.634c.666.082 1.323.204 2.012.204.689 0 1.345-.121 2.012-.204l1.74 38.634Zm-3.752-44.723c-5.642 0-10.233-4.591-10.233-10.233 0-.892.467-2.789 1.62-5.523 2.266 1.45 4.571 2.25 6.898 2.25.142 0 .282-.004.427-.01 2.577-.099 5.035-1.111 7.342-2.985 2.274 2.259 4.179 4.24 4.179 6.267 0 5.643-4.591 10.234-10.233 10.234Z" fill="#999"/></svg>